# xmcd CD database file
#
# Track frame offsets:
#	150
#	19768
#	37911
#	59833
#	79404
#	96425
#	109854
#	130299
#	146891
#	160193
#
# Disc length: 2358 seconds
#
# Revision: 5
# Processed by: cddbd v1.5.1PL0 Copyright (c) Steve Scherf et al.
# Submitted via: CDex 1.51
#
DISCID=8f09340a
DTITLE=CHIMAIRA - REASONING THE IMPOSSIBLE
DYEAR=2004
DGENRE=Blues
TTITLE0=INDIFFERENT TO SUFFERING
TTITLE1=WITHOUT MORAL RESTRAINT
TTITLE2=FASCINATION STREET
TTITLE3=LET GO (DEMO)
TTITLE4=PASS OUT OF EXISTENCE (DEMO)
TTITLE5=SEVERED (DEMO)
TTITLE6=FORCED LIFE (DEMO)
TTITLE7=DEAD INSIDE (DEMO)
TTITLE8=POWER TRIP (LIVE)
TTITLE9=CLEANSATION (LIVE)
EXTD=YEAR: 2004
EXTT0=
EXTT1=
EXTT2=
EXTT3=
EXTT4=
EXTT5=
EXTT6=
EXTT7=
EXTT8=
EXTT9=
PLAYORDER=
